<?xml version="1.0"?>
<svg xmlns="http://www.w3.org/2000/svg" xmlns:xlink="http://www.w3.org/1999/xlink" xmlns:svgjs="http://svgjs.com/svgjs" version="1.1" width="512" height="512" x="0" y="0" viewBox="0 0 24 24" style="enable-background:new 0 0 512 512" xml:space="preserve" class=""><g><g xmlns="http://www.w3.org/2000/svg" fill="#607d8b"><path d="m19.31 5.26c-.175 0-.352-.061-.494-.186-1.893-1.66-4.314-2.574-6.816-2.574-2.358 0-4.664.827-6.494 2.33-.321.263-.794.216-1.056-.104s-.216-.793.104-1.056c2.097-1.722 4.742-2.67 7.446-2.67 2.866 0 5.638 1.046 7.805 2.946.311.273.342.747.069 1.059-.148.168-.356.255-.564.255z" fill="#ededed" data-original="#607d8b" style="" class=""/><path d="m7.25 5h-2.5c-.414 0-.75-.336-.75-.75v-2.5c0-.303.183-.577.463-.693s.603-.052.817.163l2.5 2.5c.214.214.279.537.163.817s-.39.463-.693.463z" fill="#ededed" data-original="#607d8b" style="" class=""/><path d="m12.12 23c-2.867 0-5.639-1.046-7.805-2.946-.312-.273-.342-.747-.069-1.059.273-.311.747-.342 1.059-.069 1.892 1.66 4.312 2.574 6.815 2.574 2.358 0 4.664-.827 6.494-2.33.32-.264.792-.217 1.056.104.263.32.216.793-.104 1.056-2.097 1.722-4.742 2.67-7.446 2.67z" fill="#ededed" data-original="#607d8b" style="" class=""/><path d="m19.25 23c-.195 0-.387-.076-.53-.22l-2.5-2.5c-.214-.214-.279-.537-.163-.817s.39-.463.693-.463h2.5c.414 0 .75.336.75.75v2.5c0 .303-.183.577-.463.693-.093.038-.19.057-.287.057z" fill="#ededed" data-original="#607d8b" style="" class=""/></g><circle xmlns="http://www.w3.org/2000/svg" cx="5" cy="9.5" fill="#193559" r="2.5" data-original="#2196f3" style="" class=""/><path xmlns="http://www.w3.org/2000/svg" d="m7.25 13h-4.5c-1.517 0-2.75 1.233-2.75 2.75v.5c0 .414.336.75.75.75h8.5c.414 0 .75-.336.75-.75v-.5c0-1.517-1.233-2.75-2.75-2.75z" fill="#193559" data-original="#2196f3" style="" class=""/><circle xmlns="http://www.w3.org/2000/svg" cx="19" cy="9.5" fill="#517ea6" r="2.5" data-original="#4caf50" style="" class=""/><path xmlns="http://www.w3.org/2000/svg" d="m21.25 13h-4.5c-1.517 0-2.75 1.233-2.75 2.75v.5c0 .414.336.75.75.75h8.5c.414 0 .75-.336.75-.75v-.5c0-1.517-1.233-2.75-2.75-2.75z" fill="#517ea6" data-original="#4caf50" style="" class=""/></g></svg>
